<svg width="582" height="118" viewBox="0 0 582 118" fill="none" xmlns="http://www.w3.org/2000/svg">
<g clip-path="url(#clip0_1_2)">
<path d="M90.4255 67.648C90.4255 67.4773 90.5962 67.392 90.9375 67.392C91.1935 67.392 91.4068 67.4773 91.5775 67.648C91.8335 67.7333 91.9615 67.8187 91.9615 67.904C91.1082 74.56 90.6815 80.6187 90.6815 86.08C90.6815 86.7627 90.5535 87.2747 90.2975 87.616C90.0415 87.872 89.5295 88 88.7615 88H32.1855C31.9295 88 31.8015 87.744 31.8015 87.232C31.8015 86.72 31.9295 86.464 32.1855 86.464C34.9162 86.464 36.8788 86.2507 38.0735 85.824C39.3535 85.3973 40.2068 84.5867 40.6335 83.392C41.0602 82.112 41.2735 80.192 41.2735 77.632V18.368C41.2735 15.808 41.0602 13.9307 40.6335 12.736C40.2068 11.5413 39.3535 10.7307 38.0735 10.304C36.7935 9.79199 34.8308 9.536 32.1855 9.536C31.9295 9.536 31.8015 9.28 31.8015 8.768C31.8015 8.256 31.9295 8 32.1855 8H86.4575C87.3108 8 87.7375 8.384 87.7375 9.15199L87.9935 26.176C87.9935 26.3467 87.7375 26.4747 87.2255 26.56C86.7988 26.6453 86.5428 26.56 86.4575 26.304C85.0922 21.3547 82.7882 17.6853 79.5455 15.296C76.3028 12.9067 72.0362 11.712 66.7455 11.712H62.9055C60.3455 11.712 58.4682 12.2667 57.2735 13.376C56.0788 14.4853 55.4815 16.192 55.4815 18.496V44.608H66.1055C71.0548 44.608 74.8522 43.7547 77.4975 42.048C80.1428 40.3413 81.4655 37.952 81.4655 34.88C81.4655 34.624 81.6788 34.496 82.1055 34.496C82.6175 34.496 82.8735 34.624 82.8735 34.88L82.7455 46.4L82.8735 52.544C83.0442 55.4453 83.1295 57.7493 83.1295 59.456C83.1295 59.6267 82.8735 59.712 82.3615 59.712C81.8495 59.712 81.5935 59.6267 81.5935 59.456C81.5935 55.9573 80.2282 53.2267 77.4975 51.264C74.8522 49.216 71.0122 48.192 65.9775 48.192H55.4815V77.12C55.4815 79.5947 55.9508 81.4293 56.8895 82.624C57.8282 83.8187 59.3215 84.416 61.3695 84.416H65.5935C72.2495 84.416 77.5828 83.0507 81.5935 80.32C85.6042 77.5893 88.5482 73.3653 90.4255 67.648ZM188.187 86.464C188.357 86.464 188.443 86.72 188.443 87.232C188.443 87.744 188.357 88 188.187 88H165.403C163.525 88 160.027 84.5013 154.907 77.504C149.787 70.4213 143.6 60.5653 136.347 47.936C135.664 48.0213 134.683 48.064 133.403 48.064C130.075 48.064 127.728 48.0213 126.363 47.936V77.632C126.363 80.2773 126.576 82.1973 127.003 83.392C127.429 84.5867 128.24 85.3973 129.435 85.824C130.715 86.2507 132.72 86.464 135.451 86.464C135.621 86.464 135.707 86.72 135.707 87.232C135.707 87.744 135.621 88 135.451 88C132.635 88 130.416 87.9573 128.795 87.872L119.067 87.744L109.723 87.872C108.016 87.9573 105.712 88 102.811 88C102.555 88 102.427 87.744 102.427 87.232C102.427 86.72 102.555 86.464 102.811 86.464C105.541 86.464 107.504 86.2507 108.699 85.824C109.979 85.3973 110.832 84.5867 111.259 83.392C111.771 82.112 112.027 80.192 112.027 77.632V18.368C112.027 15.808 111.813 13.9307 111.387 12.736C110.96 11.5413 110.107 10.7307 108.827 10.304C107.547 9.79199 105.584 9.536 102.939 9.536C102.768 9.536 102.683 9.28 102.683 8.768C102.683 8.256 102.768 8 102.939 8L109.723 8.128C113.648 8.29866 116.763 8.384 119.067 8.384C121.541 8.384 124.272 8.256 127.259 8C128.197 7.91466 129.392 7.82933 130.843 7.744C132.379 7.65866 134.171 7.616 136.219 7.616C144.069 7.616 150.128 9.06666 154.395 11.968C158.747 14.784 160.923 18.752 160.923 23.872C160.923 27.7973 159.728 31.552 157.339 35.136C154.949 38.72 151.835 41.6213 147.995 43.84C154.821 54.592 160.539 62.9973 165.146 69.056C169.84 75.1147 173.979 79.552 177.562 82.368C181.232 85.0987 184.773 86.464 188.187 86.464ZM126.363 44.224C128.411 44.5653 130.885 44.736 133.787 44.736C136.859 44.736 139.291 44.2667 141.083 43.328C142.875 42.3893 144.155 40.768 144.923 38.464C145.776 36.16 146.203 32.9173 146.203 28.736C146.203 21.7387 145.179 16.9173 143.131 14.272C141.083 11.6267 138.139 10.304 134.299 10.304C131.397 10.304 129.349 10.944 128.155 12.224C126.96 13.504 126.363 15.6373 126.363 18.624V44.224ZM253.276 24.384C253.276 19.776 252.209 16.1493 250.076 13.504C248.028 10.8587 245.126 9.536 241.372 9.536C241.201 9.536 241.116 9.28 241.116 8.768C241.116 8.256 241.201 8 241.372 8L247.516 8.128C250.758 8.29866 253.361 8.384 255.324 8.384C256.945 8.384 259.292 8.29866 262.364 8.128L268.252 8C268.422 8 268.508 8.256 268.508 8.768C268.508 9.28 268.422 9.536 268.252 9.536C264.924 9.536 262.321 10.8587 260.444 13.504C258.566 16.1493 257.628 19.776 257.628 24.384V59.968C257.628 65.9413 256.305 71.1893 253.66 75.712C251.014 80.2347 247.26 83.7333 242.396 86.208C237.617 88.5973 232.07 89.792 225.756 89.792C219.441 89.792 213.852 88.5973 208.988 86.208C204.124 83.8187 200.284 80.3627 197.468 75.84C194.737 71.232 193.372 65.856 193.372 59.712V18.368C193.372 15.808 193.116 13.9307 192.604 12.736C192.177 11.5413 191.324 10.7307 190.044 10.304C188.849 9.79199 186.929 9.536 184.284 9.536C184.028 9.536 183.9 9.28 183.9 8.768C183.9 8.256 184.028 8 184.284 8L191.068 8.128C194.993 8.29866 198.108 8.384 200.412 8.384C202.972 8.384 206.214 8.29866 210.14 8.128L216.668 8C216.924 8 217.052 8.256 217.052 8.768C217.052 9.28 216.924 9.536 216.668 9.536C214.022 9.536 212.06 9.79199 210.78 10.304C209.585 10.816 208.732 11.712 208.22 12.992C207.793 14.1867 207.58 16.064 207.58 18.624V55.232C207.58 65.3867 209.585 72.896 213.596 77.76C217.606 82.624 223.281 85.056 230.62 85.056C237.702 85.056 243.249 82.9227 247.26 78.656C251.27 74.304 253.276 68.1173 253.276 60.096V24.384ZM311.916 88.512C309.185 88.512 305.942 88.384 302.188 88.128C300.822 88.0427 299.116 87.9573 297.068 87.872C295.105 87.7867 292.886 87.744 290.412 87.744L280.94 87.872C279.233 87.9573 276.929 88 274.028 88C273.857 88 273.772 87.744 273.772 87.232C273.772 86.72 273.857 86.464 274.028 86.464C276.758 86.464 278.764 86.2507 280.044 85.824C281.324 85.3973 282.177 84.5867 282.604 83.392C283.116 82.112 283.372 80.192 283.372 77.632V18.368C283.372 15.808 283.116 13.9307 282.604 12.736C282.177 11.5413 281.324 10.7307 280.044 10.304C278.849 9.79199 276.929 9.536 274.284 9.536C274.028 9.536 273.9 9.28 273.9 8.768C273.9 8.256 274.028 8 274.284 8L281.068 8.128C284.993 8.29866 288.108 8.384 290.412 8.384C293.91 8.384 297.494 8.256 301.164 8C305.601 7.82933 308.588 7.744 310.124 7.744C318.742 7.744 326.38 9.45066 333.036 12.864C339.777 16.2773 344.982 20.928 348.652 26.816C352.321 32.704 354.156 39.3173 354.156 46.656C354.156 54.9333 352.236 62.272 348.396 68.672C344.641 74.9867 339.521 79.8933 333.036 83.392C326.636 86.8053 319.596 88.512 311.916 88.512ZM310.636 85.568C316.097 85.568 320.918 84.2027 325.1 81.472C329.281 78.656 332.524 74.5173 334.827 69.056C337.217 63.5947 338.412 57.0667 338.412 49.472C338.412 42.2187 337.302 35.648 335.084 29.76C332.865 23.7867 329.708 19.0933 325.612 15.68C321.516 12.2667 316.78 10.56 311.404 10.56C306.113 10.56 302.486 11.072 300.524 12.096C298.561 13.12 297.58 15.296 297.58 18.624V76.224C297.58 79.6373 298.476 82.0693 300.268 83.52C302.06 84.8853 305.516 85.568 310.636 85.568ZM389.494 77.632C389.494 80.2773 389.707 82.1973 390.134 83.392C390.56 84.5867 391.371 85.3973 392.566 85.824C393.846 86.2507 395.851 86.464 398.582 86.464C398.838 86.464 398.966 86.72 398.966 87.232C398.966 87.744 398.838 88 398.582 88C395.766 88 393.547 87.9573 391.926 87.872L382.198 87.744L372.726 87.872C371.019 87.9573 368.715 88 365.814 88C365.643 88 365.558 87.744 365.558 87.232C365.558 86.72 365.643 86.464 365.814 86.464C368.544 86.464 370.55 86.2507 371.83 85.824C373.11 85.3973 373.963 84.5867 374.39 83.392C374.902 82.112 375.158 80.192 375.158 77.632V18.368C375.158 15.808 374.902 13.9307 374.39 12.736C373.963 11.5413 373.11 10.7307 371.83 10.304C370.55 9.79199 368.544 9.536 365.814 9.536C365.643 9.536 365.558 9.28 365.558 8.768C365.558 8.256 365.643 8 365.814 8L372.726 8.128C376.651 8.29866 379.808 8.384 382.198 8.384C384.843 8.384 388.128 8.29866 392.054 8.128L398.582 8C398.838 8 398.966 8.256 398.966 8.768C398.966 9.28 398.838 9.536 398.582 9.536C395.936 9.536 393.974 9.79199 392.694 10.304C391.414 10.816 390.56 11.712 390.134 12.992C389.707 14.1867 389.494 16.064 389.494 18.624V77.632ZM432.604 10.944C422.449 10.944 415.153 17.5573 410.716 30.784C410.63 31.04 410.374 31.168 409.948 31.168C409.521 31.0827 409.308 30.912 409.308 30.656C409.649 27.2427 410.033 22.848 410.46 17.472C410.886 12.0107 411.1 7.91467 411.1 5.184C411.1 4.75733 411.313 4.544 411.74 4.544C412.252 4.544 412.508 4.75733 412.508 5.184C412.508 7.06133 414.94 8 419.804 8C427.142 8.256 435.718 8.384 445.532 8.384C450.566 8.384 455.9 8.29866 461.532 8.128L470.236 8C473.478 8 475.825 7.78666 477.276 7.35999C478.812 6.93333 479.793 6.07999 480.22 4.8C480.305 4.45866 480.561 4.28799 480.988 4.28799C481.5 4.28799 481.756 4.45866 481.756 4.8C481.5 7.36 481.201 11.456 480.86 17.088C480.604 22.72 480.476 27.2427 480.476 30.656C480.476 30.912 480.262 31.04 479.836 31.04C479.409 31.04 479.153 30.912 479.068 30.656C477.788 24.0853 475.398 19.1787 471.9 15.936C468.401 12.608 464.092 10.944 458.972 10.944C456.497 10.944 454.833 11.4987 453.98 12.608C453.212 13.632 452.828 15.6373 452.828 18.624V77.632C452.828 80.2773 453.084 82.1973 453.596 83.392C454.108 84.5867 455.089 85.3973 456.54 85.824C457.99 86.2507 460.294 86.464 463.452 86.464C463.708 86.464 463.836 86.72 463.836 87.232C463.836 87.744 463.708 88 463.452 88C460.38 88 457.948 87.9573 456.156 87.872L445.532 87.744L435.164 87.872C433.372 87.9573 430.897 88 427.74 88C427.484 88 427.356 87.744 427.356 87.232C427.356 86.72 427.484 86.464 427.74 86.464C430.812 86.464 433.073 86.2507 434.524 85.824C436.06 85.3973 437.084 84.5867 437.596 83.392C438.193 82.112 438.492 80.192 438.492 77.632V18.368C438.492 15.4667 438.108 13.504 437.34 12.48C436.572 11.456 434.993 10.944 432.604 10.944ZM549.926 67.648C549.926 67.4773 550.096 67.392 550.438 67.392C550.694 67.392 550.907 67.4773 551.077 67.648C551.334 67.7333 551.462 67.8187 551.462 67.904C550.608 74.56 550.182 80.6187 550.182 86.08C550.182 86.7627 550.054 87.2747 549.798 87.616C549.542 87.872 549.03 88 548.262 88H491.686C491.43 88 491.302 87.744 491.302 87.232C491.302 86.72 491.43 86.464 491.686 86.464C494.416 86.464 496.379 86.2507 497.574 85.824C498.854 85.3973 499.707 84.5867 500.134 83.392C500.56 82.112 500.774 80.192 500.774 77.632V18.368C500.774 15.808 500.56 13.9307 500.134 12.736C499.707 11.5413 498.854 10.7307 497.574 10.304C496.294 9.79199 494.331 9.536 491.686 9.536C491.43 9.536 491.302 9.28 491.302 8.768C491.302 8.256 491.43 8 491.686 8H545.958C546.811 8 547.238 8.384 547.238 9.15199L547.494 26.176C547.494 26.3467 547.238 26.4747 546.726 26.56C546.299 26.6453 546.043 26.56 545.958 26.304C544.592 21.3547 542.288 17.6853 539.046 15.296C535.803 12.9067 531.536 11.712 526.246 11.712H522.406C519.846 11.712 517.968 12.2667 516.774 13.376C515.579 14.4853 514.982 16.192 514.982 18.496V44.608H525.606C530.555 44.608 534.352 43.7547 536.998 42.048C539.643 40.3413 540.966 37.952 540.966 34.88C540.966 34.624 541.179 34.496 541.606 34.496C542.118 34.496 542.374 34.624 542.374 34.88L542.246 46.4L542.374 52.544C542.544 55.4453 542.63 57.7493 542.63 59.456C542.63 59.6267 542.374 59.712 541.862 59.712C541.35 59.712 541.094 59.6267 541.094 59.456C541.094 55.9573 539.728 53.2267 536.998 51.264C534.352 49.216 530.512 48.192 525.478 48.192H514.982V77.12C514.982 79.5947 515.451 81.4293 516.39 82.624C517.328 83.8187 518.822 84.416 520.87 84.416H525.094C531.75 84.416 537.083 83.0507 541.094 80.32C545.104 77.5893 548.048 73.3653 549.926 67.648Z" fill="white"/>
<line x1="16" y1="101" x2="568" y2="101" stroke="white" stroke-width="2"/>
<line x1="7" y1="109" x2="577" y2="109" stroke="white" stroke-width="2"/>
</g>
<defs>
<clipPath id="clip0_1_2">
<rect width="582" height="118" fill="white"/>
</clipPath>
</defs>
</svg>
